<?xml version="1.0" encoding="utf-8"?>
<!-- Generator: Adobe Illustrator 26.4.1, SVG Export Plug-In . SVG Version: 6.00 Build 0)  -->
<svg version="1.1" id="Capa_1" xmlns="http://www.w3.org/2000/svg" xmlns:xlink="http://www.w3.org/1999/xlink" x="0px" y="0px"
	 viewBox="0 0 844 111" style="enable-background:new 0 0 844 111;" xml:space="preserve">
<style type="text/css">
	.st0{fill:#2E3192;}
	.st1{fill:#ED1C24;}
</style>
<g>
	<g>
		<path class="st0" d="M45.21,60.68c-0.47-1.17-1.25-2.28-2.35-3.31c-1.14-1-2.61-1.92-4.43-2.77c-1.81-0.85-4.06-1.63-6.75-2.35
			c-4.18-1.14-7.84-2.52-11-4.14c-3.16-1.62-5.74-3.4-7.74-5.33c-2-1.93-3.51-4.07-4.53-6.42c-1.02-2.35-1.53-4.9-1.53-7.66
			c0-3.17,0.67-6.06,2.02-8.64s3.21-4.8,5.59-6.62c2.38-1.83,5.19-3.23,8.44-4.22c3.24-0.98,6.76-1.48,10.56-1.48
			c3.93,0,7.53,0.57,10.79,1.71s6.06,2.73,8.41,4.76c2.35,2.07,4.17,4.52,5.49,7.35c1.31,2.83,1.97,5.94,1.97,9.32H45.96
			c-0.07-1.69-0.37-3.24-0.91-4.66c-0.54-1.41-1.32-2.64-2.35-3.67c-1.07-1-2.39-1.79-3.96-2.35c-1.57-0.57-3.41-0.85-5.51-0.85
			c-1.93,0-3.65,0.23-5.15,0.7s-2.77,1.11-3.8,1.94c-1.04,0.86-1.82,1.87-2.35,3.03c-0.54,1.16-0.8,2.41-0.8,3.75
			c0,1.42,0.35,2.69,1.06,3.83c0.71,1.14,1.73,2.16,3.08,3.05c1.35,0.93,2.98,1.78,4.89,2.54c1.92,0.76,4.08,1.47,6.5,2.12
			c2.59,0.72,5.05,1.6,7.4,2.64c2.35,1.04,4.5,2.23,6.47,3.57c2.97,2.21,5.33,4.78,7.09,7.71c1.76,2.93,2.64,6.31,2.64,10.14
			c0,3.31-0.66,6.25-1.99,8.82c-1.33,2.57-3.17,4.74-5.51,6.5c-2.35,1.79-5.14,3.15-8.38,4.06c-3.24,0.91-6.78,1.37-10.61,1.37
			c-3.76,0-7.48-0.56-11.15-1.68s-6.88-2.77-9.6-4.94c-2.59-2.14-4.63-4.66-6.13-7.56s-2.25-6.3-2.25-10.2h14.29
			c0.07,2.28,0.47,4.23,1.19,5.85c0.72,1.62,1.74,2.95,3.05,3.99c1.28,1.04,2.82,1.79,4.63,2.28c1.81,0.48,3.8,0.72,5.98,0.72
			c1.93,0,3.65-0.22,5.15-0.67c1.5-0.45,2.77-1.07,3.8-1.86c1.04-0.79,1.83-1.75,2.38-2.87c0.55-1.12,0.83-2.35,0.83-3.7
			S45.68,61.85,45.21,60.68z"/>
		<path class="st0" d="M84.83,68.39l-4.45,15.73H65.06L89.75,8.76h13.2l24.22,75.36h-15.32l-4.4-15.73H84.83z M104.03,56.02
			l-7.71-27.74L88.4,56.02H104.03z"/>
		<path class="st0" d="M169.2,84.12l-20.96-48.6v48.6h-14.65V8.76h14.65l20.81,48.39l0.05-48.39h14.6v75.36H169.2z"/>
		<path class="st0" d="M247.48,70.77c-1.4,3.04-3.27,5.62-5.62,7.76c-2.35,2.14-5.14,3.79-8.38,4.94
			c-3.24,1.16-6.83,1.73-10.77,1.73c-3.11,0-5.98-0.41-8.62-1.22s-5.01-1.98-7.12-3.49c-1.93-1.41-3.65-3.12-5.15-5.12
			c-1.5-2-2.77-4.21-3.8-6.62c-1-2.42-1.77-5.07-2.3-7.97c-0.54-2.9-0.8-5.97-0.8-9.21V41.42c0-3.04,0.24-5.93,0.72-8.67
			c0.48-2.74,1.21-5.29,2.17-7.63c1.1-2.86,2.55-5.42,4.35-7.66c1.79-2.24,3.83-4.14,6.11-5.69c2.04-1.31,4.27-2.32,6.7-3.03
			c2.43-0.71,5.05-1.06,7.84-1.06c4.14,0,7.82,0.59,11.05,1.76c3.23,1.17,5.98,2.85,8.26,5.02s4.07,4.83,5.38,7.97
			c1.31,3.14,2.14,6.68,2.48,10.61H235.5c-0.14-2.24-0.47-4.21-1.01-5.9c-0.54-1.69-1.3-3.11-2.3-4.24
			c-1.04-1.1-2.32-1.94-3.86-2.51c-1.54-0.57-3.37-0.85-5.51-0.85c-1.14,0-2.2,0.12-3.18,0.36c-0.98,0.24-1.89,0.6-2.72,1.09
			c-1.42,0.83-2.61,2.01-3.6,3.55c-0.98,1.54-1.77,3.32-2.35,5.36c-0.45,1.59-0.78,3.34-0.98,5.25s-0.31,3.98-0.31,6.19v10.25
			c0,3,0.16,5.69,0.49,8.05c0.33,2.36,0.84,4.43,1.53,6.19c0.48,1.21,1.06,2.28,1.73,3.21s1.44,1.71,2.3,2.33
			c0.93,0.69,1.98,1.2,3.13,1.53c1.16,0.33,2.44,0.49,3.86,0.49c1.9,0,3.61-0.24,5.12-0.72c1.52-0.48,2.81-1.24,3.88-2.28
			c1.07-1.04,1.92-2.36,2.54-3.99c0.62-1.62,1-3.57,1.14-5.85h14.54C249.7,64.32,248.88,67.73,247.48,70.77z"/>
		<path class="st0" d="M296.57,84.12V51.46h-21.32v32.66h-14.44V8.76h14.44v30.9h21.32V8.76h14.39v75.36H296.57z"/>
		<path class="st0" d="M340.26,51.1v21.27h36.18v11.75h-50.77V8.76h50.62v11.85h-36.02v19h30.95V51.1H340.26z"/>
		<path class="st0" d="M441.34,72.38v11.75h-55.07v-8.9l36.54-54.6h-36.44V8.76h54.04l0.05,8.64l-36.49,54.97H441.34z"/>
		<path class="st1" d="M510.78,28.16c0.07-4.17-0.39-7.47-1.38-9.91c-0.99-2.44-2.44-4.17-4.35-5.19c-1.91-1.02-4.28-1.54-7.1-1.54
			h-0.32c-2.33,0-4.15,0.2-5.46,0.58c-1.31,0.39-2.32,1.2-3.02,2.44c-0.71,1.24-1.41,3.16-2.12,5.78l-13.99,52.58
			c-0.64,2.54-0.92,4.45-0.85,5.72c0.07,1.27,0.65,2.1,1.75,2.49c1.09,0.39,2.81,0.58,5.14,0.58h1.38c3.39,0,6.4-0.6,9.01-1.8
			c2.61-1.2,5.07-3.16,7.37-5.88c2.29-2.72,4.57-6.41,6.84-11.08h2.33c-0.35,0.92-0.72,2.05-1.11,3.39
			c-0.39,1.34-0.76,2.76-1.11,4.24c-0.35,1.34-0.81,3.27-1.38,5.78c-0.57,2.51-1.03,5.11-1.38,7.79c-3.6-0.14-7.61-0.23-12.03-0.27
			c-4.42-0.03-8.39-0.05-11.93-0.05c-1.91,0-4.31,0-7.21,0c-2.9,0-6.06,0.02-9.49,0.05c-3.43,0.04-6.87,0.07-10.33,0.11
			c-3.46,0.04-6.75,0.09-9.86,0.16l0.42-2.12c2.4-0.14,4.28-0.42,5.62-0.85c1.34-0.42,2.4-1.27,3.18-2.54
			c0.78-1.27,1.48-3.18,2.12-5.72l13.99-52.58c0.71-2.61,0.99-4.54,0.85-5.78c-0.14-1.24-0.76-2.08-1.86-2.54
			c-1.1-0.46-2.85-0.72-5.25-0.8l0.53-2.12c3.04,0.07,6.29,0.12,9.75,0.16c3.46,0.04,6.91,0.07,10.33,0.11
			c3.43,0.04,6.59,0.05,9.49,0.05c2.9,0,5.3,0,7.21,0c3.25,0,6.89-0.02,10.92-0.05c4.03-0.03,7.7-0.12,11.02-0.26
			c-0.92,2.47-1.68,4.58-2.28,6.31c-0.6,1.73-1.18,3.8-1.75,6.2c-0.28,1.27-0.55,2.47-0.79,3.6c-0.25,1.13-0.44,2.12-0.58,2.97
			H510.78z M470.92,47.45l0.42-2.12h22.68l-0.42,2.12H470.92z M482.27,45.33c1.7,0,3.34-0.32,4.93-0.95
			c1.59-0.64,3.04-1.52,4.35-2.65c1.31-1.13,2.47-2.4,3.5-3.82c1.02-1.41,1.82-2.9,2.38-4.45h2.33c-0.92,2.76-1.61,5.04-2.07,6.84
			c-0.46,1.8-0.97,3.83-1.54,6.1c-0.36,1.41-0.67,2.67-0.95,3.76c-0.28,1.1-0.55,2.32-0.79,3.66c-0.25,1.34-0.58,3.18-1.01,5.51
			h-2.33c0-1.2-0.16-2.49-0.48-3.87s-0.87-2.67-1.64-3.87c-0.78-1.2-1.84-2.19-3.18-2.97c-1.34-0.78-3-1.17-4.98-1.17L482.27,45.33z
			"/>
		<path class="st1" d="M528.69,77.45c2.26-3.04,4.12-6.45,5.56-10.23c1.45-3.78,2.56-7.15,3.34-10.12l2.12,0.11
			c-0.5,1.98-1.2,4.28-2.12,6.89c-0.92,2.62-2,5.25-3.23,7.9c-1.24,2.65-2.67,5.04-4.29,7.16c-1.98,2.54-4.05,4.26-6.2,5.14
			c-2.16,0.88-4.22,1.32-6.2,1.32c-3.04,0-5.42-0.76-7.16-2.28c-1.73-1.52-2.6-3.59-2.6-6.2c0-3.11,0.97-5.55,2.92-7.31
			c1.94-1.77,4.22-2.65,6.84-2.65c2.83,0,5.14,0.94,6.94,2.81C526.41,71.85,527.77,74.34,528.69,77.45z M554.77,74.8
			c0.35,1.84,0.81,3.11,1.38,3.82c0.57,0.71,1.31,1.06,2.23,1.06c0.92,0,1.85-0.55,2.81-1.64c0.95-1.09,2.03-3.44,3.23-7.05
			l1.38-3.92h2.01l-2.65,7.74c-0.99,3.11-2.37,5.44-4.13,7c-1.77,1.56-3.68,2.58-5.72,3.07c-2.05,0.49-3.99,0.74-5.83,0.74
			c-3.67,0-6.77-0.76-9.27-2.28c-2.51-1.52-3.98-4.36-4.4-8.53l-4.24-36.36c-0.28-1.84-0.76-2.98-1.43-3.44
			c-0.67-0.46-1.47-0.69-2.38-0.69c-0.57,0-1.15,0.16-1.75,0.48c-0.6,0.32-1.22,1.04-1.86,2.17c-0.64,1.13-1.38,2.9-2.23,5.3
			l-1.38,3.92h-2.01l2.65-7.74c0.99-3.11,2.37-5.44,4.13-7c1.77-1.55,3.73-2.58,5.88-3.07c2.16-0.49,4.22-0.74,6.2-0.74
			c3.89,0,6.98,0.81,9.28,2.44c2.29,1.63,3.69,4.91,4.19,9.86L554.77,74.8z M557.42,35.79c-1.48,1.98-2.79,4.17-3.92,6.57
			c-1.13,2.4-2.1,4.81-2.92,7.21c-0.81,2.4-1.5,4.59-2.07,6.57l-2.12-0.11c0.14-0.56,0.44-1.64,0.9-3.23
			c0.46-1.59,1.09-3.46,1.91-5.62c0.81-2.15,1.8-4.38,2.97-6.68c1.17-2.3,2.46-4.43,3.87-6.41c1.91-2.61,3.94-4.35,6.09-5.19
			c2.16-0.85,4.22-1.27,6.2-1.27c2.9,0,5.26,0.78,7.1,2.33c1.84,1.56,2.76,3.78,2.76,6.68c0,2.76-0.88,5.02-2.65,6.78
			c-1.77,1.77-4.06,2.65-6.89,2.65c-2.19,0-4.36-0.74-6.52-2.23C559.98,42.36,558.41,39.68,557.42,35.79z"/>
		<path class="st1" d="M595.26,15.01c3.74-0.35,7.22-0.86,10.44-1.54c3.21-0.67,6.34-1.5,9.38-2.49L592.5,91.23
			c-1.13,4.1-1.03,6.75,0.32,7.95c1.34,1.2,3.89,1.84,7.63,1.91l-0.64,2.23c-1.84-0.07-4.44-0.16-7.79-0.27
			c-3.36-0.11-6.91-0.16-10.65-0.16c-3.25,0-6.5,0.05-9.75,0.16c-3.25,0.11-5.69,0.19-7.31,0.27l0.64-2.23
			c2.54,0,4.38-0.48,5.51-1.43c1.13-0.95,2.05-2.67,2.76-5.14L595.26,15.01z M575.76,47.45c2.47-2.76,4.79-5.53,6.94-8.32
			c2.16-2.79,4.26-6.08,6.31-9.86c2.05-3.78,4.13-8.53,6.25-14.26l0.32,1.7c-1.41,4.95-3.07,9.31-4.98,13.09
			c-1.91,3.78-4.01,7.17-6.31,10.18c-2.3,3-4.75,5.95-7.37,8.85L575.76,47.45z M614.66,34.73c-1.13,0-2.32,0.64-3.55,1.91
			c-1.24,1.27-2.46,3.04-3.66,5.3c-1.2,2.26-2.33,4.84-3.39,7.74c-1.06,2.9-1.98,5.97-2.76,9.22l2.01-10.39
			c1.7-4.88,3.5-8.85,5.41-11.92s3.99-5.33,6.25-6.78c2.26-1.45,4.73-2.17,7.42-2.17c4.95,0,8.6,1.5,10.97,4.5
			c2.37,3,3.55,7.26,3.55,12.77c0,3.32-0.46,6.84-1.38,10.55c-0.92,3.71-2.26,7.35-4.03,10.92c-1.77,3.57-3.96,6.8-6.57,9.7
			c-2.62,2.9-5.6,5.21-8.96,6.94c-3.36,1.73-7.08,2.6-11.18,2.6c-2.4,0-4.59-0.28-6.57-0.85c-1.98-0.57-3.53-1.24-4.66-2.01
			l0.74-1.38c0.56,0.21,1.13,0.39,1.7,0.53c0.56,0.14,1.2,0.21,1.91,0.21c1.91,0,3.8-0.78,5.67-2.33c1.87-1.55,3.62-3.66,5.25-6.31
			c1.62-2.65,3.07-5.63,4.35-8.96c1.27-3.32,2.26-6.82,2.97-10.49c0.71-3.67,1.06-7.24,1.06-10.71c0-3.74-0.23-6.11-0.69-7.1
			C616.05,35.22,615.44,34.73,614.66,34.73z"/>
		<path class="st1" d="M658.65,84.12h-18.76l12.93-46c0.42-1.62,0.56-2.77,0.42-3.45c-0.14-0.67-0.6-1.01-1.38-1.01
			c-1.06,0-2.05,0.48-2.97,1.43c-0.92,0.95-1.87,2.7-2.86,5.25l-2.44,6.47h-2.01l2.97-8.27c0.99-2.68,2.24-4.82,3.76-6.41
			c1.52-1.59,3.3-2.74,5.35-3.44c2.05-0.71,4.28-1.06,6.68-1.06c2.4,0,4.31,0.44,5.72,1.33c1.41,0.88,2.44,2.07,3.07,3.55
			s0.97,3.09,1.01,4.82c0.04,1.73-0.16,3.44-0.58,5.14L658.65,84.12z M685.68,29.75c-1.34,0-2.77,0.21-4.29,0.64
			c-1.52,0.42-3.11,1.5-4.77,3.23c-1.66,1.73-3.43,4.5-5.3,8.32c-1.87,3.82-3.87,9.12-5.99,15.9c-2.12,6.78-4.35,15.44-6.68,25.97
			l2.23-14.84c2.12-8.27,4.06-15.07,5.83-20.4c1.77-5.33,3.53-9.54,5.3-12.61c1.77-3.07,3.71-5.23,5.83-6.47
			c2.12-1.24,4.59-1.85,7.42-1.85c3.32,0,5.87,0.99,7.63,2.97c1.77,1.98,2.65,4.42,2.65,7.31c0,2.33-0.51,4.5-1.54,6.52
			c-1.02,2.01-2.44,3.64-4.24,4.88c-1.8,1.24-3.87,1.85-6.2,1.85c-2.62,0-4.59-0.67-5.94-2.01c-1.34-1.34-2.01-3.32-2.01-5.94
			c0-2.12,0.53-4.1,1.59-5.94c1.06-1.84,2.47-3.41,4.24-4.72c1.77-1.31,3.67-2.14,5.72-2.49c-0.21-0.07-0.44-0.14-0.69-0.21
			C686.22,29.78,685.96,29.75,685.68,29.75z"/>
		<path class="st1" d="M709.63,61.86c2.26-1.06,4.49-2.33,6.68-3.82c2.19-1.48,4.2-3.11,6.04-4.88c2.83-2.76,5.14-5.9,6.94-9.43
			c1.8-3.53,2.7-7.35,2.7-11.45c0-0.99-0.14-1.68-0.42-2.07c-0.28-0.39-0.71-0.58-1.27-0.58c-1.41,0-2.95,0.79-4.61,2.38
			c-1.66,1.59-3.3,3.71-4.93,6.36c-1.63,2.65-3.09,5.64-4.4,8.96c-1.31,3.32-2.37,6.73-3.18,10.23c-0.81,3.5-1.22,6.87-1.22,10.12
			c0,4.1,0.81,6.84,2.44,8.22c1.62,1.38,3.74,2.07,6.36,2.07c1.41,0,3.53-0.53,6.36-1.59c2.83-1.06,5.65-3,8.48-5.83l1.7,0.85
			c-1.55,2.33-3.6,4.59-6.15,6.78c-2.54,2.19-5.55,3.98-9.01,5.35c-3.46,1.38-7.35,2.07-11.66,2.07c-3.32,0-6.38-0.57-9.17-1.7
			c-2.79-1.13-5.02-2.81-6.68-5.04c-1.66-2.23-2.49-4.96-2.49-8.21c0-4.17,0.65-8.3,1.96-12.4c1.31-4.1,3.16-7.98,5.57-11.66
			c2.4-3.67,5.28-6.94,8.64-9.81c3.36-2.86,7.08-5.1,11.18-6.73c4.1-1.62,8.48-2.44,13.14-2.44c3.75,0,6.87,0.76,9.38,2.28
			c2.51,1.52,3.76,3.87,3.76,7.05c0,2.69-0.71,5.21-2.12,7.58c-1.42,2.37-3.36,4.52-5.83,6.47c-2.47,1.94-5.27,3.69-8.37,5.25
			c-3.11,1.56-6.38,2.9-9.8,4.03c-3.43,1.13-6.8,2.01-10.12,2.65L709.63,61.86z"/>
		<path class="st1" d="M753.94,82.64c0.56,0.28,1.15,0.48,1.75,0.58c0.6,0.11,1.25,0.16,1.96,0.16c2.19,0,4.01-0.72,5.46-2.17
			c1.45-1.45,2.17-3.41,2.17-5.88c0-2.4-0.57-4.91-1.7-7.53c-1.13-2.61-2.62-5.37-4.45-8.27c-1.7-2.76-3.18-5.35-4.45-7.79
			c-1.27-2.44-1.91-5.14-1.91-8.11c0-3.04,0.78-5.76,2.33-8.16c1.55-2.4,3.88-4.31,7-5.72c3.11-1.41,7.03-2.12,11.77-2.12
			c2.97,0,5.85,0.35,8.64,1.06c2.79,0.71,5.09,1.93,6.89,3.66c1.8,1.73,2.7,4.22,2.7,7.47c0,1.41-0.28,2.86-0.85,4.35
			c-0.57,1.48-1.4,2.7-2.49,3.66c-1.1,0.95-2.49,1.43-4.19,1.43c-2.12,0-3.78-0.83-4.98-2.49c-1.2-1.66-1.8-3.8-1.8-6.41
			c0-2.26,0.37-4.27,1.11-6.04c0.74-1.77,1.5-3.07,2.28-3.92c-0.57-0.28-1.45-0.42-2.65-0.42c-2.47,0-4.33,0.71-5.57,2.12
			c-1.24,1.41-1.89,3.46-1.96,6.15c0,1.56,0.3,3.13,0.9,4.72c0.6,1.59,1.39,3.18,2.38,4.77c0.99,1.59,1.98,3.23,2.97,4.93
			c2.33,3.96,3.98,7.19,4.93,9.7c0.95,2.51,1.43,4.97,1.43,7.37c0,2.9-0.79,5.55-2.38,7.95c-1.59,2.4-3.96,4.33-7.1,5.78
			c-3.14,1.45-7.05,2.17-11.71,2.17c-3.32,0-6.48-0.41-9.49-1.22c-3-0.81-5.44-2.21-7.31-4.19c-1.87-1.98-2.81-4.7-2.81-8.16
			c0-2.61,0.65-4.84,1.96-6.68c1.31-1.84,3.06-2.76,5.25-2.76c2.05,0,3.71,0.85,4.98,2.54c1.27,1.7,1.91,3.96,1.91,6.78
			c0,2.26-0.37,4.35-1.11,6.25S754.43,81.58,753.94,82.64z"/>
		<path class="st1" d="M801.22,82.64c0.56,0.28,1.15,0.48,1.75,0.58c0.6,0.11,1.25,0.16,1.96,0.16c2.19,0,4.01-0.72,5.46-2.17
			c1.45-1.45,2.17-3.41,2.17-5.88c0-2.4-0.57-4.91-1.7-7.53c-1.13-2.61-2.62-5.37-4.45-8.27c-1.7-2.76-3.18-5.35-4.45-7.79
			c-1.27-2.44-1.91-5.14-1.91-8.11c0-3.04,0.78-5.76,2.33-8.16c1.55-2.4,3.88-4.31,7-5.72c3.11-1.41,7.03-2.12,11.77-2.12
			c2.97,0,5.85,0.35,8.64,1.06c2.79,0.71,5.09,1.93,6.89,3.66c1.8,1.73,2.7,4.22,2.7,7.47c0,1.41-0.28,2.86-0.85,4.35
			c-0.57,1.48-1.4,2.7-2.49,3.66c-1.1,0.95-2.49,1.43-4.19,1.43c-2.12,0-3.78-0.83-4.98-2.49c-1.2-1.66-1.8-3.8-1.8-6.41
			c0-2.26,0.37-4.27,1.11-6.04c0.74-1.77,1.5-3.07,2.28-3.92c-0.57-0.28-1.45-0.42-2.65-0.42c-2.47,0-4.33,0.71-5.57,2.12
			c-1.24,1.41-1.89,3.46-1.96,6.15c0,1.56,0.3,3.13,0.9,4.72c0.6,1.59,1.39,3.18,2.38,4.77c0.99,1.59,1.98,3.23,2.97,4.93
			c2.33,3.96,3.98,7.19,4.93,9.7c0.95,2.51,1.43,4.97,1.43,7.37c0,2.9-0.79,5.55-2.38,7.95c-1.59,2.4-3.96,4.33-7.1,5.78
			c-3.14,1.45-7.05,2.17-11.71,2.17c-3.32,0-6.48-0.41-9.49-1.22c-3-0.81-5.44-2.21-7.31-4.19c-1.87-1.98-2.81-4.7-2.81-8.16
			c0-2.61,0.65-4.84,1.96-6.68c1.31-1.84,3.06-2.76,5.25-2.76c2.05,0,3.71,0.85,4.98,2.54c1.27,1.7,1.91,3.96,1.91,6.78
			c0,2.26-0.37,4.35-1.11,6.25S801.71,81.58,801.22,82.64z"/>
	</g>
</g>
</svg>
